<svg width="1440" height="51" viewBox="0 0 1440 51" fill="none" xmlns="http://www.w3.org/2000/svg">
<path d="M484.73 0H463.66L432.35 31.31C431.26 29.584 429.983 27.9842 428.54 26.54C423.375 21.3861 416.377 18.4916 409.08 18.4916C401.784 18.4916 394.785 21.3861 389.62 26.54C388.175 27.9822 386.897 29.5822 385.81 31.31L354.5 0H333.39L378.95 45.56L374.18 50.33H388.55H395.29C394.342 47.283 394.419 44.0089 395.51 41.01C396.347 38.7315 397.744 36.7005 399.572 35.1043C401.401 33.5081 403.602 32.3983 405.972 31.8771C408.343 31.356 410.806 31.4403 413.136 32.1225C415.465 32.8046 417.585 34.0625 419.3 35.78C420.788 37.256 421.931 39.0417 422.65 41.01C423.701 43.9016 423.813 47.0511 422.97 50.01C422.97 50.12 422.89 50.23 422.85 50.34H429.62H444.42L439.42 45.34L484.73 0ZM426.3 34.07C425.581 33.0303 424.771 32.0565 423.88 31.16C424.785 32.0547 425.608 33.0286 426.34 34.07H426.3ZM399.3 27.41C402.746 25.5957 406.628 24.7752 410.513 25.0401C414.398 25.3049 418.133 26.6448 421.3 28.91C418.135 26.6487 414.404 25.3111 410.523 25.0462C406.642 24.7814 402.763 25.5997 399.32 27.41H399.3Z" fill="#E6E6E6"/>
<path d="M523.88 3.11L520.76 0H505.88L460.54 45.34L465.53 50.33H486.64L481.65 45.34L523.88 3.11Z" fill="#E6E6E6"/>
<path d="M534.43 13.67L502.77 45.34L507.76 50.33H528.87L523.88 45.34L544.99 24.22L534.43 13.67Z" fill="#E6E6E6"/>
<path d="M622.13 50.33V50.01L621.81 50.33H622.13Z" fill="#E6E6E6"/>
<path d="M616.25 13.67L605.69 24.23L622.13 40.67V19.56L616.25 13.67Z" fill="#E6E6E6"/>
<path d="M590.03 21.41C589.19 20.88 588.32 20.41 587.44 19.98C588.32 20.42 589.19 20.88 590.03 21.41L611.44 0H590.33L575.33 15L560.33 0H539.24L560.65 21.41C558.922 22.4972 557.322 23.7752 555.88 25.22C552.647 28.4554 550.272 32.4458 548.969 36.8301C547.667 41.2144 547.478 45.8543 548.42 50.33H562.04C561.272 48.5282 560.878 46.5888 560.883 44.63C560.888 42.6713 561.291 40.734 562.069 38.936C562.846 37.1381 563.981 35.5171 565.405 34.1717C566.829 32.8263 568.511 31.7846 570.35 31.11C573.58 29.9354 577.12 29.9354 580.35 31.11C582.191 31.7822 583.875 32.8225 585.3 34.1675C586.726 35.5124 587.862 37.1337 588.639 38.9324C589.417 40.7311 589.82 42.6695 589.824 44.6291C589.827 46.5887 589.431 48.5285 588.66 50.33H602.28C603.222 45.8543 603.033 41.2144 601.73 36.8301C600.428 32.4458 598.053 28.4554 594.82 25.22C593.374 23.7716 591.767 22.4933 590.03 21.41Z" fill="#E6E6E6"/>
<path d="M152.73 0H131.57L100.04 31.53C98.9565 29.8024 97.6818 28.2024 96.2401 26.76C91.0752 21.6061 84.0767 18.7116 76.7801 18.7116C69.4836 18.7116 62.485 21.6061 57.3201 26.76C55.8814 28.205 54.607 29.8047 53.5201 31.53L21.9801 0H0.870117L46.6501 45.78L42.1001 50.33H56.2001H62.9301C62.0462 47.345 62.1443 44.155 63.2101 41.23C63.929 39.2641 65.0689 37.4791 66.5501 36C69.2632 33.2905 72.9408 31.7687 76.7751 31.7687C80.6095 31.7687 84.287 33.2905 87.0001 36C88.4813 37.4791 89.6213 39.2641 90.3401 41.23C91.3992 44.1196 91.5147 47.2706 90.6701 50.23C90.6701 50.23 90.6701 50.3 90.6701 50.34H111.94L107.17 45.57L152.73 0ZM52.4801 33.2C52.7901 32.64 53.1101 32.08 53.4801 31.53C53.1601 32.08 52.8401 32.64 52.5301 33.2H52.4801ZM77.6301 25.2C82.8819 25.4195 87.8586 27.608 91.5701 31.33C87.8759 27.6491 82.94 25.4808 77.7301 25.25L77.6301 25.2Z" fill="#E6E6E6"/>
<path d="M191.57 3.33L188.24 0H173.8L128.24 45.56L133.01 50.33H154.12L149.35 45.56L191.57 3.33Z" fill="#E6E6E6"/>
<path d="M202.13 13.89L170.46 45.56L175.23 50.33H196.35L191.57 45.56L212.69 24.44L202.13 13.89Z" fill="#E6E6E6"/>
<path d="M312.28 0H297.84L294.5 3.33L336.72 45.56L331.95 50.33H353.07L357.84 45.56L312.28 0Z" fill="#E6E6E6"/>
<path d="M283.94 13.89L273.39 24.45L294.5 45.56L289.73 50.33H310.84L315.61 45.56L283.94 13.89Z" fill="#E6E6E6"/>
<path d="M279.36 0H258.25L243.04 15.21L227.83 0H206.73L228.36 21.63C226.635 22.7173 225.039 23.9954 223.6 25.44C220.39 28.646 218.025 32.5971 216.714 36.9403C215.404 41.2835 215.189 45.8837 216.09 50.33H229.66C228.928 48.5339 228.565 46.6087 228.594 44.6694C228.623 42.7301 229.042 40.8164 229.827 39.0429C230.612 37.2693 231.747 35.6722 233.163 34.347C234.579 33.0218 236.248 31.9957 238.07 31.33C241.3 30.1554 244.84 30.1554 248.07 31.33L279.36 0Z" fill="#E6E6E6"/>
<path d="M257.73 21.63L248.03 31.33C249.85 31.998 251.517 33.0255 252.932 34.3511C254.346 35.6768 255.48 37.2736 256.265 39.0464C257.049 40.8193 257.469 42.7319 257.499 44.6704C257.529 46.6089 257.169 48.5336 256.44 50.33H270.01C270.899 45.8898 270.679 41.2986 269.369 36.9638C268.059 32.629 265.7 28.6845 262.5 25.48C261.06 24.0212 259.46 22.7297 257.73 21.63Z" fill="#E6E6E6"/>
<path d="M403.4 0H382.28L377.63 4.65L388.18 15.21L403.4 0Z" fill="#E6E6E6"/>
<path d="M440.97 4.65L436.31 0H415.2L430.41 15.21L440.97 4.65Z" fill="#E6E6E6"/>
<path d="M0 20.25V41.36L4.42 45.78L0 50.2V50.33H20.98L25.53 45.78L0 20.25Z" fill="#E6E6E6"/>
<path d="M108.66 4.87L103.79 0H82.6799L98.1099 15.43L108.66 4.87Z" fill="#E6E6E6"/>
<path d="M71.3101 0H50.2001L45.3301 4.87L55.8801 15.43L71.3101 0Z" fill="#E6E6E6"/>
<path d="M1106.73 0H1085.66L1054.35 31.31C1053.26 29.584 1051.98 27.9842 1050.54 26.54C1045.38 21.3861 1038.38 18.4916 1031.08 18.4916C1023.78 18.4916 1016.79 21.3861 1011.62 26.54C1010.18 27.9822 1008.9 29.5822 1007.81 31.31L976.5 0H955.39L1000.95 45.56L996.18 50.33H1010.55H1017.29C1016.34 47.283 1016.42 44.0089 1017.51 41.01C1018.35 38.7315 1019.74 36.7005 1021.57 35.1043C1023.4 33.5081 1025.6 32.3983 1027.97 31.8771C1030.34 31.356 1032.81 31.4403 1035.14 32.1225C1037.47 32.8046 1039.59 34.0625 1041.3 35.78C1042.79 37.256 1043.93 39.0417 1044.65 41.01C1045.7 43.9016 1045.81 47.0511 1044.97 50.01C1044.97 50.12 1044.89 50.23 1044.85 50.34H1051.62H1066.42L1061.42 45.34L1106.73 0ZM1048.3 34.07C1047.58 33.0303 1046.77 32.0565 1045.88 31.16C1046.79 32.0547 1047.61 33.0286 1048.34 34.07H1048.3ZM1021.3 27.41C1024.75 25.5957 1028.63 24.7752 1032.51 25.0401C1036.4 25.3049 1040.13 26.6448 1043.3 28.91C1040.13 26.6487 1036.4 25.3111 1032.52 25.0462C1028.64 24.7814 1024.76 25.5997 1021.32 27.41H1021.3Z" fill="#E6E6E6"/>
<path d="M1145.88 3.11L1142.76 0H1127.88L1082.54 45.34L1087.53 50.33H1108.64L1103.65 45.34L1145.88 3.11Z" fill="#E6E6E6"/>
<path d="M1156.43 13.67L1124.77 45.34L1129.76 50.33H1150.87L1145.88 45.34L1166.99 24.22L1156.43 13.67Z" fill="#E6E6E6"/>
<path d="M1244.13 50.33V50.01L1243.81 50.33H1244.13Z" fill="#E6E6E6"/>
<path d="M1238.25 13.67L1227.69 24.23L1244.13 40.67V19.56L1238.25 13.67Z" fill="#E6E6E6"/>
<path d="M1212.03 21.41C1211.19 20.88 1210.32 20.41 1209.44 19.98C1210.32 20.42 1211.19 20.88 1212.03 21.41L1233.44 0H1212.33L1197.33 15L1182.33 0H1161.24L1182.65 21.41C1180.92 22.4972 1179.32 23.7752 1177.88 25.22C1174.65 28.4554 1172.27 32.4458 1170.97 36.8301C1169.67 41.2144 1169.48 45.8543 1170.42 50.33H1184.04C1183.27 48.5282 1182.88 46.5888 1182.88 44.63C1182.89 42.6713 1183.29 40.734 1184.07 38.936C1184.85 37.1381 1185.98 35.5171 1187.4 34.1717C1188.83 32.8263 1190.51 31.7846 1192.35 31.11C1195.58 29.9354 1199.12 29.9354 1202.35 31.11C1204.19 31.7822 1205.88 32.8225 1207.3 34.1675C1208.73 35.5124 1209.86 37.1337 1210.64 38.9324C1211.42 40.7311 1211.82 42.6695 1211.82 44.6291C1211.83 46.5887 1211.43 48.5285 1210.66 50.33H1224.28C1225.22 45.8543 1225.03 41.2144 1223.73 36.8301C1222.43 32.4458 1220.05 28.4554 1216.82 25.22C1215.37 23.7716 1213.77 22.4933 1212.03 21.41Z" fill="#E6E6E6"/>
<path d="M774.73 0H753.57L722.04 31.53C720.956 29.8024 719.682 28.2024 718.24 26.76C713.075 21.6061 706.077 18.7116 698.78 18.7116C691.484 18.7116 684.485 21.6061 679.32 26.76C677.881 28.205 676.607 29.8047 675.52 31.53L643.98 0H622.87L668.65 45.78L664.1 50.33H678.2H684.93C684.046 47.345 684.144 44.155 685.21 41.23C685.929 39.2641 687.069 37.4791 688.55 36C691.263 33.2905 694.941 31.7687 698.775 31.7687C702.609 31.7687 706.287 33.2905 709 36C710.481 37.4791 711.621 39.2641 712.34 41.23C713.399 44.1196 713.515 47.2706 712.67 50.23C712.67 50.23 712.67 50.3 712.67 50.34H733.94L729.17 45.57L774.73 0ZM674.48 33.2C674.79 32.64 675.11 32.08 675.48 31.53C675.16 32.08 674.84 32.64 674.53 33.2H674.48ZM699.63 25.2C704.882 25.4195 709.859 27.608 713.57 31.33C709.876 27.6491 704.94 25.4808 699.73 25.25L699.63 25.2Z" fill="#E6E6E6"/>
<path d="M813.57 3.33L810.24 0H795.8L750.24 45.56L755.01 50.33H776.12L771.35 45.56L813.57 3.33Z" fill="#E6E6E6"/>
<path d="M824.13 13.89L792.46 45.56L797.23 50.33H818.35L813.57 45.56L834.69 24.44L824.13 13.89Z" fill="#E6E6E6"/>
<path d="M934.28 0H919.84L916.5 3.33L958.72 45.56L953.95 50.33H975.07L979.84 45.56L934.28 0Z" fill="#E6E6E6"/>
<path d="M905.94 13.89L895.39 24.45L916.5 45.56L911.73 50.33H932.84L937.61 45.56L905.94 13.89Z" fill="#E6E6E6"/>
<path d="M901.36 0H880.25L865.04 15.21L849.83 0H828.73L850.36 21.63C848.635 22.7173 847.039 23.9954 845.6 25.44C842.39 28.646 840.025 32.5971 838.714 36.9403C837.404 41.2835 837.189 45.8837 838.09 50.33H851.66C850.928 48.5339 850.565 46.6087 850.594 44.6694C850.623 42.7301 851.042 40.8164 851.827 39.0429C852.612 37.2693 853.747 35.6722 855.163 34.347C856.579 33.0218 858.248 31.9957 860.07 31.33C863.3 30.1554 866.84 30.1554 870.07 31.33L901.36 0Z" fill="#E6E6E6"/>
<path d="M879.73 21.63L870.03 31.33C871.85 31.998 873.517 33.0255 874.932 34.3511C876.346 35.6768 877.48 37.2736 878.265 39.0464C879.049 40.8193 879.469 42.7319 879.499 44.6704C879.529 46.6089 879.169 48.5336 878.44 50.33H892.01C892.899 45.8898 892.679 41.2986 891.369 36.9638C890.059 32.629 887.7 28.6845 884.5 25.48C883.06 24.0212 881.46 22.7297 879.73 21.63Z" fill="#E6E6E6"/>
<path d="M1025.4 0H1004.28L999.63 4.65L1010.18 15.21L1025.4 0Z" fill="#E6E6E6"/>
<path d="M1062.97 4.65L1058.31 0H1037.2L1052.41 15.21L1062.97 4.65Z" fill="#E6E6E6"/>
<path d="M622 20.25V41.36L626.42 45.78L622 50.2V50.33H642.98L647.53 45.78L622 20.25Z" fill="#E6E6E6"/>
<path d="M730.66 4.87L725.79 0H704.68L720.11 15.43L730.66 4.87Z" fill="#E6E6E6"/>
<path d="M693.31 0H672.2L667.33 4.87L677.88 15.43L693.31 0Z" fill="#E6E6E6"/>
<path d="M1728.73 0H1707.66L1676.35 31.31C1675.26 29.584 1673.98 27.9842 1672.54 26.54C1667.38 21.3861 1660.38 18.4916 1653.08 18.4916C1645.78 18.4916 1638.79 21.3861 1633.62 26.54C1632.18 27.9822 1630.9 29.5822 1629.81 31.31L1598.5 0H1577.39L1622.95 45.56L1618.18 50.33H1632.55H1639.29C1638.34 47.283 1638.42 44.0089 1639.51 41.01C1640.35 38.7315 1641.74 36.7005 1643.57 35.1043C1645.4 33.5081 1647.6 32.3983 1649.97 31.8771C1652.34 31.356 1654.81 31.4403 1657.14 32.1225C1659.47 32.8046 1661.59 34.0625 1663.3 35.78C1664.79 37.256 1665.93 39.0417 1666.65 41.01C1667.7 43.9016 1667.81 47.0511 1666.97 50.01C1666.97 50.12 1666.89 50.23 1666.85 50.34H1673.62H1688.42L1683.42 45.34L1728.73 0ZM1670.3 34.07C1669.58 33.0303 1668.77 32.0565 1667.88 31.16C1668.79 32.0547 1669.61 33.0286 1670.34 34.07H1670.3ZM1643.3 27.41C1646.75 25.5957 1650.63 24.7752 1654.51 25.0401C1658.4 25.3049 1662.13 26.6448 1665.3 28.91C1662.13 26.6487 1658.4 25.3111 1654.52 25.0462C1650.64 24.7814 1646.76 25.5997 1643.32 27.41H1643.3Z" fill="#E6E6E6"/>
<path d="M1767.88 3.11L1764.76 0H1749.88L1704.54 45.34L1709.53 50.33H1730.64L1725.65 45.34L1767.88 3.11Z" fill="#E6E6E6"/>
<path d="M1778.43 13.67L1746.77 45.34L1751.76 50.33H1772.87L1767.88 45.34L1788.99 24.22L1778.43 13.67Z" fill="#E6E6E6"/>
<path d="M1866.13 50.33V50.01L1865.81 50.33H1866.13Z" fill="#E6E6E6"/>
<path d="M1860.25 13.67L1849.69 24.23L1866.13 40.67V19.56L1860.25 13.67Z" fill="#E6E6E6"/>
<path d="M1834.03 21.41C1833.19 20.88 1832.32 20.41 1831.44 19.98C1832.32 20.42 1833.19 20.88 1834.03 21.41L1855.44 0H1834.33L1819.33 15L1804.33 0H1783.24L1804.65 21.41C1802.92 22.4972 1801.32 23.7752 1799.88 25.22C1796.65 28.4554 1794.27 32.4458 1792.97 36.8301C1791.67 41.2144 1791.48 45.8543 1792.42 50.33H1806.04C1805.27 48.5282 1804.88 46.5888 1804.88 44.63C1804.89 42.6713 1805.29 40.734 1806.07 38.936C1806.85 37.1381 1807.98 35.5171 1809.4 34.1717C1810.83 32.8263 1812.51 31.7846 1814.35 31.11C1817.58 29.9354 1821.12 29.9354 1824.35 31.11C1826.19 31.7822 1827.88 32.8225 1829.3 34.1675C1830.73 35.5124 1831.86 37.1337 1832.64 38.9324C1833.42 40.7311 1833.82 42.6695 1833.82 44.6291C1833.83 46.5887 1833.43 48.5285 1832.66 50.33H1846.28C1847.22 45.8543 1847.03 41.2144 1845.73 36.8301C1844.43 32.4458 1842.05 28.4554 1838.82 25.22C1837.37 23.7716 1835.77 22.4933 1834.03 21.41Z" fill="#E6E6E6"/>
<path d="M1396.73 0H1375.57L1344.04 31.53C1342.96 29.8024 1341.68 28.2024 1340.24 26.76C1335.08 21.6061 1328.08 18.7116 1320.78 18.7116C1313.48 18.7116 1306.49 21.6061 1301.32 26.76C1299.88 28.205 1298.61 29.8047 1297.52 31.53L1265.98 0H1244.87L1290.65 45.78L1286.1 50.33H1300.2H1306.93C1306.05 47.345 1306.14 44.155 1307.21 41.23C1307.93 39.2641 1309.07 37.4791 1310.55 36C1313.26 33.2905 1316.94 31.7687 1320.78 31.7687C1324.61 31.7687 1328.29 33.2905 1331 36C1332.48 37.4791 1333.62 39.2641 1334.34 41.23C1335.4 44.1196 1335.51 47.2706 1334.67 50.23C1334.67 50.23 1334.67 50.3 1334.67 50.34H1355.94L1351.17 45.57L1396.73 0ZM1296.48 33.2C1296.79 32.64 1297.11 32.08 1297.48 31.53C1297.16 32.08 1296.84 32.64 1296.53 33.2H1296.48ZM1321.63 25.2C1326.88 25.4195 1331.86 27.608 1335.57 31.33C1331.88 27.6491 1326.94 25.4808 1321.73 25.25L1321.63 25.2Z" fill="#E6E6E6"/>
<path d="M1435.57 3.33L1432.24 0H1417.8L1372.24 45.56L1377.01 50.33H1398.12L1393.35 45.56L1435.57 3.33Z" fill="#E6E6E6"/>
<path d="M1446.13 13.89L1414.46 45.56L1419.23 50.33H1440.35L1435.57 45.56L1456.69 24.44L1446.13 13.89Z" fill="#E6E6E6"/>
<path d="M1556.28 0H1541.84L1538.5 3.33L1580.72 45.56L1575.95 50.33H1597.07L1601.84 45.56L1556.28 0Z" fill="#E6E6E6"/>
<path d="M1527.94 13.89L1517.39 24.45L1538.5 45.56L1533.73 50.33H1554.84L1559.61 45.56L1527.94 13.89Z" fill="#E6E6E6"/>
<path d="M1523.36 0H1502.25L1487.04 15.21L1471.83 0H1450.73L1472.36 21.63C1470.64 22.7173 1469.04 23.9954 1467.6 25.44C1464.39 28.646 1462.02 32.5971 1460.71 36.9403C1459.4 41.2835 1459.19 45.8837 1460.09 50.33H1473.66C1472.93 48.5339 1472.57 46.6087 1472.59 44.6694C1472.62 42.7301 1473.04 40.8164 1473.83 39.0429C1474.61 37.2693 1475.75 35.6722 1477.16 34.347C1478.58 33.0218 1480.25 31.9957 1482.07 31.33C1485.3 30.1554 1488.84 30.1554 1492.07 31.33L1523.36 0Z" fill="#E6E6E6"/>
<path d="M1501.73 21.63L1492.03 31.33C1493.85 31.998 1495.52 33.0255 1496.93 34.3511C1498.35 35.6768 1499.48 37.2736 1500.26 39.0464C1501.05 40.8193 1501.47 42.7319 1501.5 44.6704C1501.53 46.6089 1501.17 48.5336 1500.44 50.33H1514.01C1514.9 45.8898 1514.68 41.2986 1513.37 36.9638C1512.06 32.629 1509.7 28.6845 1506.5 25.48C1505.06 24.0212 1503.46 22.7297 1501.73 21.63Z" fill="#E6E6E6"/>
<path d="M1647.4 0H1626.28L1621.63 4.65L1632.18 15.21L1647.4 0Z" fill="#E6E6E6"/>
<path d="M1684.97 4.65L1680.31 0H1659.2L1674.41 15.21L1684.97 4.65Z" fill="#E6E6E6"/>
<path d="M1244 20.25V41.36L1248.42 45.78L1244 50.2V50.33H1264.98L1269.53 45.78L1244 20.25Z" fill="#E6E6E6"/>
<path d="M1352.66 4.87L1347.79 0H1326.68L1342.11 15.43L1352.66 4.87Z" fill="#E6E6E6"/>
<path d="M1315.31 0H1294.2L1289.33 4.87L1299.88 15.43L1315.31 0Z" fill="#E6E6E6"/>
</svg>
